<svg width="607" height="720" xmlns="http://www.w3.org/2000/svg" xmlns:xlink="http://www.w3.org/1999/xlink" xml:space="preserve" overflow="hidden"><defs><clipPath id="clip0"><rect x="0" y="0" width="607" height="720"/></clipPath></defs><g clip-path="url(#clip0)"><path d="M0 643.198C0 643.198 176.361 625.043 248.788 711.67 283.002 752.594 270.973 780.85 309.728 848.785 324.657 874.952 387.734 985.53 487.471 1011.29 612.325 1043.54 679.365 913.116 782.017 955.432 850.383 983.616 839.778 1049.35 934.37 1087.47 985.963 1108.26 1016.6 1104.37 1051.17 1133.17 1091.88 1167.09 1089.29 1244.9 1089.29 1244.9L0 1244.9 0 643.198Z" fill="#CAF930" transform="matrix(-1.83697e-16 -1 -1.00006 1.83708e-16 1244.97 831.867)"/></g></svg>